<?xml version="1.0" encoding="iso-8859-1"?>
<!-- Generator: Adobe Illustrator 19.0.0, SVG Export Plug-In . SVG Version: 6.00 Build 0)  -->
<svg version="1.1" id="Capa_1" xmlns="http://www.w3.org/2000/svg" xmlns:xlink="http://www.w3.org/1999/xlink" x="0px" y="0px"
	 viewBox="0 0 512.008 512.008" style="enable-background:new 0 0 512.008 512.008;" xml:space="preserve">
<path style="fill:#64B5F6;" d="M114.223,109.79L71.556,67.123c-4.165-4.164-10.917-4.164-15.083,0L13.807,109.79
	c-2.007,2.001-3.135,4.718-3.136,7.552v384c0,5.891,4.776,10.667,10.667,10.667h85.333c5.891,0,10.667-4.776,10.667-10.667v-384
	C117.343,114.511,116.222,111.794,114.223,109.79z"/>
<path style="fill:#42A5F5;" d="M238.746,150.152c-3.985-1.654-8.574-0.745-11.627,2.304l-35.115,35.136l-35.115-35.136
	c-4.16-4.171-10.914-4.179-15.085-0.019c-2.011,2.006-3.139,4.731-3.134,7.571v341.333c0,5.891,4.776,10.667,10.667,10.667h85.333
	c5.891,0,10.667-4.776,10.667-10.667V160.008C245.337,155.692,242.735,151.801,238.746,150.152z"/>
<path style="fill:#2196F3;" d="M366.746,192.819c-3.985-1.654-8.574-0.745-11.627,2.304l-35.115,35.136l-35.115-35.136
	c-4.16-4.171-10.914-4.179-15.085-0.019c-2.011,2.006-3.139,4.731-3.134,7.571v298.667c0,5.891,4.776,10.667,10.667,10.667h85.333
	c5.891,0,10.667-4.776,10.667-10.667V202.675C373.337,198.359,370.735,194.468,366.746,192.819z"/>
<path style="fill:#1976D2;" d="M405.338,298.675h85.333c5.891,0,10.667,4.776,10.667,10.667v192c0,5.891-4.776,10.667-10.667,10.667
	h-85.333c-5.891,0-10.667-4.776-10.667-10.667v-192C394.671,303.451,399.447,298.675,405.338,298.675z"/>
<path style="fill:#455A64;" d="M494.746,192.819c-3.985-1.654-8.574-0.745-11.627,2.304l-24.448,24.469l-88.448-88.469
	c-4.165-4.164-10.917-4.164-15.083,0l-35.136,35.136l-77.781-77.803c-4.165-4.164-10.917-4.164-15.083,0l-35.136,35.136
	L71.556,3.123c-4.165-4.164-10.917-4.164-15.083,0L13.807,45.79c-4.093,4.237-3.975,10.99,0.262,15.083
	c4.134,3.992,10.687,3.992,14.821,0l35.115-35.115l120.448,120.469c4.165,4.164,10.917,4.164,15.083,0l35.136-35.136l77.781,77.781
	c4.165,4.164,10.917,4.164,15.083,0l35.136-35.115l80.917,80.917l-24.448,24.448c-4.171,4.16-4.179,10.914-0.019,15.085
	c2.001,2.006,4.717,3.133,7.55,3.134h64c5.891,0,10.667-4.776,10.667-10.667v-64C501.337,198.359,498.735,194.468,494.746,192.819z"
	/>
<g>
</g>
<g>
</g>
<g>
</g>
<g>
</g>
<g>
</g>
<g>
</g>
<g>
</g>
<g>
</g>
<g>
</g>
<g>
</g>
<g>
</g>
<g>
</g>
<g>
</g>
<g>
</g>
<g>
</g>
</svg>
