<svg id="Capa_1" enable-background="new 0 0 512 512" height="512" viewBox="0 0 512 512" width="512" xmlns="http://www.w3.org/2000/svg"><g><g><path d="m0 0v152.184l72.151 30.389v-182.573z" fill="#fdd752"/><path d="m72.151 0v182.573l72.151-30.389v-152.184z" fill="#f8bd3f"/></g><g><path d="m159.111 347.135-14.809-194.951h-72.151v359.816h72.151z" fill="#fd9326"/><path d="m0 152.184h72.151v359.816h-72.151z" fill="#f8bd3f"/></g><g><path d="m72.151 416.202h15.846v31.282h-15.846z" fill="#f8bd3f"/><path d="m57.997 416.202h14.154v31.282h-14.154z" fill="#fdd752"/><path d="m72.151 261.246h15.846v119.599h-15.846z" fill="#f8bd3f"/><path d="m57.997 261.246h14.154v119.599h-14.154z" fill="#fdd752"/><path d="m57.997 64.125h14.154v31.282h-14.154z" fill="#f8bd3f"/><path d="m72.151 64.125h15.846v31.282h-15.846z" fill="#fd9326"/></g><g><path d="m144.302 152.184h64.307v359.816h-64.307z" fill="#fd465f"/><path d="m283.725 355.062-13.764-202.878h-61.353v359.816h61.353z" fill="#ce0c51"/></g><g><path d="m193.608 308.845h15v138.639h-15z" fill="#fd6c5f"/><path d="m208.608 308.845h15v138.639h-15z" fill="#fd465f"/></g><g><path d="m269.961 61.809v90.762l39.525 22.305 8.817-59.948-8.817-53.119z" fill="#21c8c7"/></g><path d="m367.845 107.19-16.871-45.381h-41.488v108.959l41.488-18.197z" fill="#17a0a9"/><g><path d="m350.974 61.809v90.762l39.525 22.305 8.817-59.948-8.817-53.119z" fill="#21c8c7"/></g><path d="m448.858 107.19-16.871-45.381h-41.488v108.959l41.488-18.197z" fill="#17a0a9"/><g><path d="m269.961 152.571v60.004l39.525 26.23 12.781-56.232-12.781-30.002z" fill="#6ae1db"/><path d="m367.845 182.573-16.871-30.002h-41.488v60.004h41.488z" fill="#21c8c7"/></g><g><path d="m350.974 152.571v60.004l39.525 26.23 12.781-56.232-12.781-30.002z" fill="#6ae1db"/><path d="m448.858 182.573-16.871-30.002h-41.488v60.004h41.488z" fill="#21c8c7"/></g><path d="m269.961 212.575v299.425h39.525l12.781-152.315-12.781-147.11z" fill="#21c8c7"/><path d="m372.469 378.164-21.495-165.589h-41.488v299.425h41.488z" fill="#17a0a9"/><path d="m350.974 212.575v299.425h39.525l12.781-152.315-12.781-147.11z" fill="#21c8c7"/><path d="m453.482 378.164-21.495-165.589h-41.488v299.425h41.488z" fill="#17a0a9"/><g><path d="m430.987 61.809v90.762l40.506 18.197 12.608-55.84-12.608-53.119z" fill="#21c8c7"/><path d="m512 61.809h-40.507v117.546l40.507-26.784z" fill="#17a0a9"/></g><g><path d="m430.987 152.571v60.004l40.506 28.872 12.608-53.504-12.608-35.372z" fill="#6ae1db"/><path d="m512 152.571h-40.507v88.876l40.507-28.872z" fill="#21c8c7"/></g><path d="m430.987 512h40.506l12.608-168.828-12.608-130.597h-40.506z" fill="#21c8c7"/><path d="m471.493 212.575h40.507v299.425h-40.507z" fill="#17a0a9"/></g></svg>